<svg xmlns="http://www.w3.org/2000/svg" width="980" height="520" viewBox="0 0 980 520" role="img" aria-labelledby="title desc">
  <title id="title">Aegis security workflow</title>
  <desc id="desc">Authorized scope flows into passive discovery, target advisory, localized reports, and AIGate readiness.</desc>
  <rect width="980" height="520" fill="#ffffff"/>
  <rect x="42" y="42" width="896" height="436" rx="24" fill="#f8faf9" stroke="#d9e2e8" stroke-width="2"/>
  <g font-family="Inter, system-ui, -apple-system, BlinkMacSystemFont, Segoe UI, sans-serif" letter-spacing="0">
    <text x="80" y="100" fill="#172026" font-size="28" font-weight="800">Privit Aegis workflow</text>
    <text x="80" y="132" fill="#5f6b76" font-size="16">Passive by default, scoped before every scan, readable after every run.</text>
    <g transform="translate(78 188)">
      <rect width="150" height="118" rx="14" fill="#0f766e"/>
      <text x="24" y="44" fill="#ffffff" font-size="18" font-weight="800">Scope</text>
      <text x="24" y="74" fill="#d7fff1" font-size="13">authorization</text>
      <text x="24" y="94" fill="#d7fff1" font-size="13">allowlist</text>
    </g>
    <path d="M246 247h68" fill="none" stroke="#5f6b76" stroke-width="3" stroke-linecap="round"/>
    <path d="M306 238l14 9-14 9" fill="none" stroke="#5f6b76" stroke-width="3" stroke-linecap="round" stroke-linejoin="round"/>
    <g transform="translate(326 188)">
      <rect width="150" height="118" rx="14" fill="#2563eb"/>
      <text x="24" y="44" fill="#ffffff" font-size="18" font-weight="800">Discover</text>
      <text x="24" y="74" fill="#dbeafe" font-size="13">routes</text>
      <text x="24" y="94" fill="#dbeafe" font-size="13">forms</text>
    </g>
    <path d="M494 247h68" fill="none" stroke="#5f6b76" stroke-width="3" stroke-linecap="round"/>
    <path d="M554 238l14 9-14 9" fill="none" stroke="#5f6b76" stroke-width="3" stroke-linecap="round" stroke-linejoin="round"/>
    <g transform="translate(574 188)">
      <rect width="150" height="118" rx="14" fill="#b45309"/>
      <text x="24" y="44" fill="#ffffff" font-size="18" font-weight="800">Review</text>
      <text x="24" y="74" fill="#ffedd5" font-size="13">headers</text>
      <text x="24" y="94" fill="#ffedd5" font-size="13">API posture</text>
    </g>
    <path d="M742 247h68" fill="none" stroke="#5f6b76" stroke-width="3" stroke-linecap="round"/>
    <path d="M802 238l14 9-14 9" fill="none" stroke="#5f6b76" stroke-width="3" stroke-linecap="round" stroke-linejoin="round"/>
    <g transform="translate(822 188)">
      <rect width="80" height="118" rx="14" fill="#b91c1c"/>
      <text x="18" y="44" fill="#ffffff" font-size="16" font-weight="800">Report</text>
      <text x="18" y="74" fill="#fee2e2" font-size="12">i18n</text>
      <text x="18" y="94" fill="#fee2e2" font-size="12">fixes</text>
    </g>
    <g transform="translate(188 360)">
      <rect width="604" height="58" rx="14" fill="#172026"/>
      <text x="24" y="36" fill="#ffffff" font-size="16" font-weight="800">AIGate stays attached to git push and CI readiness</text>
      <circle cx="558" cy="29" r="13" fill="#15803d"/>
      <path d="M552 29l5 5 10-12" fill="none" stroke="#ffffff" stroke-width="3" stroke-linecap="round" stroke-linejoin="round"/>
    </g>
  </g>
</svg>
